<?xml version="1.0" standalone="no"?>
<!DOCTYPE svg PUBLIC "-//W3C//DTD SVG 20010904//EN"
 "http://www.w3.org/TR/2001/REC-SVG-20010904/DTD/svg10.dtd">
<svg version="1.0" xmlns="http://www.w3.org/2000/svg"
 width="260.000000pt" height="260.000000pt" viewBox="0 0 260.000000 260.000000"
 preserveAspectRatio="xMidYMid meet">
<metadata>
Created by potrace 1.11, written by Peter Selinger 2001-2013
</metadata>
<g transform="translate(0.000000,260.000000) scale(0.100000,-0.100000)"
fill="#000000" stroke="none">
<path d="M852 2512 c-56 -20 -101 -41 -98 -47 2 -5 20 -47 40 -92 l35 -83 -47
-32 c-26 -17 -73 -56 -104 -86 l-57 -54 -92 51 c-50 28 -97 51 -103 50 -9 0
-134 -161 -159 -204 -5 -9 21 -36 81 -87 l87 -73 -27 -75 c-14 -41 -31 -104
-37 -140 -18 -104 -19 -115 -20 -122 -1 -5 -66 -8 -146 -8 l-145 0 0 -170 c0
-129 3 -170 13 -171 6 -1 77 -2 157 -3 l144 -1 8 -45 c9 -48 54 -228 63 -252
4 -10 -32 -49 -110 -117 -72 -64 -113 -107 -108 -114 29 -48 167 -227 174
-227 6 0 51 34 102 75 l92 75 20 -28 c11 -15 53 -60 92 -99 82 -82 80 -67 19
-192 -20 -41 -34 -76 -32 -78 2 -2 48 -21 102 -42 55 -21 107 -42 116 -46 17
-7 21 0 81 138 11 26 15 27 47 21 19 -4 69 -8 110 -9 l74 -2 22 -64 c14 -42
26 -63 35 -61 8 2 55 23 105 48 l92 45 -15 57 -15 57 28 20 c15 11 52 40 82
64 l54 43 42 -41 c23 -23 44 -41 48 -41 6 0 108 153 108 163 0 3 -15 22 -34
43 l-33 36 34 52 c18 28 39 66 45 84 13 36 26 36 84 1 25 -15 34 -16 41 -7 13
17 83 143 83 151 0 3 -29 22 -65 43 -45 26 -64 43 -60 54 2 8 7 29 10 45 2 17
7 40 9 53 5 22 3 23 -59 21 -35 -1 -68 -5 -73 -8 -5 -3 -17 -33 -27 -66 -46
-162 -168 -313 -305 -378 -198 -94 -378 -64 -524 88 -171 179 -274 524 -226
761 53 270 241 491 459 544 162 39 338 -38 446 -194 21 -31 41 -56 44 -56 14
1 166 89 169 98 1 5 -13 31 -33 57 -20 26 -35 48 -33 49 26 16 78 59 78 65 0
6 -98 142 -113 158 -3 2 -29 -19 -58 -46 l-53 -50 -46 42 c-25 23 -61 54 -80
68 l-35 27 27 83 c15 45 26 84 25 85 -1 1 -44 23 -95 48 l-93 47 -39 -86 c-22
-48 -43 -84 -48 -81 -4 2 -42 8 -83 11 -84 8 -81 6 -140 112 -22 40 -43 74
-47 77 -4 2 -53 -13 -110 -32z"/>
<path d="M1967 1657 c4 -7 35 -51 70 -98 35 -48 63 -89 63 -91 0 -3 -6 -5 -12
-5 -7 0 -53 -4 -103 -8 -49 -4 -103 -9 -120 -10 -92 -8 -185 -16 -220 -20 -22
-2 -71 -6 -110 -10 -38 -3 -88 -8 -110 -10 -22 -2 -80 -7 -130 -10 -148 -10
-146 -8 -140 -63 6 -57 13 -150 22 -257 3 -44 7 -87 9 -95 1 -8 3 -22 3 -31 1
-15 8 -15 69 6 82 28 233 76 452 145 91 29 225 72 299 96 74 24 136 43 137 41
1 -1 -6 -38 -16 -82 -11 -44 -19 -86 -20 -93 0 -11 98 74 368 319 l63 57 -208
83 c-114 45 -245 97 -291 115 -45 18 -79 27 -75 21z"/>
</g>
</svg>
